<?xml version="1.0" encoding="utf-8"?>
<!-- Svg Vector Icons : http://www.onlinewebfonts.com/icon -->
<!DOCTYPE svg PUBLIC "-//W3C//DTD SVG 1.1//EN" "http://www.w3.org/Graphics/SVG/1.1/DTD/svg11.dtd">
<svg version="1.1" xmlns="http://www.w3.org/2000/svg" xmlns:xlink="http://www.w3.org/1999/xlink" x="0px" y="0px" viewBox="0 0 1000 1000" enable-background="new 0 0 1000 1000" xml:space="preserve">
<metadata> Svg Vector Icons : http://www.onlinewebfonts.com/icon </metadata>
<g><path d="M902.6,93.3c19.8,0,35.8,16,35.8,35.8V643c0,19.8-16,35.8-35.8,35.8H464.7L213.8,858.1V678.8H97.4c-19.8,0-35.8-16-35.8-35.8V129.2c0-19.8,16-35.8,35.8-35.8H902.6 M902.6,41.8H97.4C49.2,41.8,10,81,10,129.2V643c0,48.2,39.2,87.4,87.4,87.4h64.9v227.8l319-227.8h421.4c48.2,0,87.4-39.2,87.4-87.4V129.2C990,81,950.8,41.8,902.6,41.8L902.6,41.8L902.6,41.8z"/><path d="M205.7,386.1L205.7,386.1c0,40.5,32.8,73.3,73.3,73.3c40.5,0,73.3-32.8,73.3-73.3l0,0l0,0c0-40.5-32.8-73.3-73.3-73.3C238.5,312.8,205.7,345.6,205.7,386.1S205.7,386.1,205.7,386.1z"/><path d="M427.3,386.1L427.3,386.1c0,40.5,32.8,73.3,73.3,73.3s73.3-32.8,73.3-73.3l0,0l0,0c0-40.5-32.8-73.3-73.3-73.3C460.1,312.8,427.3,345.6,427.3,386.1L427.3,386.1z"/><path d="M644.4,386.1c0,40.5,32.8,73.3,73.3,73.3c40.5,0,73.3-32.8,73.3-73.3c0-40.5-32.8-73.3-73.3-73.3S644.4,345.6,644.4,386.1z"/></g>
</svg>